<?xml version="1.0" standalone="no"?>
<!DOCTYPE svg PUBLIC "-//W3C//DTD SVG 20010904//EN"
 "http://www.w3.org/TR/2001/REC-SVG-20010904/DTD/svg10.dtd">
<svg version="1.0" xmlns="http://www.w3.org/2000/svg"
 width="250.000000pt" height="250.000000pt" viewBox="0 0 250.000000 250.000000"
 preserveAspectRatio="xMidYMid meet">
<metadata>
Created by potrace 1.11, written by Peter Selinger 2001-2013
</metadata>
<g transform="translate(0.000000,250.000000) scale(0.100000,-0.100000)"
fill="#000000" stroke="none">
<path d="M438 1793 c-112 -3 -118 -5 -138 -30 -18 -23 -20 -40 -20 -142 0
-105 3 -120 25 -160 32 -55 32 -84 0 -115 -14 -14 -25 -32 -25 -40 0 -13 -15
-14 -100 -9 -55 3 -100 4 -100 2 0 -2 11 -46 25 -98 l24 -94 -35 -68 c-19 -38
-34 -71 -34 -74 0 -3 82 -46 181 -95 163 -79 184 -93 203 -127 l22 -38 790 -3
791 -2 19 42 c18 40 27 46 197 130 97 48 177 90 177 93 0 3 -16 36 -35 74
l-34 69 24 88 c14 49 25 93 25 98 0 5 -49 6 -115 2 l-115 -7 0 146 0 145 28 0
c47 0 62 27 62 108 0 103 3 102 -199 102 -113 0 -171 -4 -179 -12 -8 -8 -15
-8 -27 2 -12 10 -55 13 -173 11 -154 -2 -157 -2 -177 -26 -27 -33 -68 -33 -89
0 -16 24 -22 25 -105 25 -83 0 -88 -1 -101 -25 -11 -20 -21 -25 -53 -25 -30 0
-44 6 -59 25 -18 23 -26 25 -107 25 -75 0 -91 -3 -106 -20 -17 -19 -18 -19
-43 0 -35 28 -196 30 -211 3 -9 -16 -11 -16 -28 -1 -24 22 -47 25 -185 21z
m172 -93 c11 -21 20 -53 20 -70 0 -30 0 -30 -55 -30 -42 0 -55 3 -55 15 0 11
-11 15 -41 15 l-40 0 3 -37 3 -38 71 -3 c71 -3 71 -3 92 -41 19 -34 22 -54 22
-160 0 -102 -3 -128 -20 -161 l-20 -40 -114 0 c-140 0 -146 4 -146 96 l0 64
55 0 c52 0 55 -1 55 -25 0 -22 4 -25 40 -25 l40 0 0 90 0 89 -72 3 -72 3 -23
40 c-19 33 -23 55 -23 132 0 123 0 123 146 123 l114 0 20 -40z m244 -32 c27
-106 31 -110 50 -45 9 31 19 70 22 87 l7 30 84 0 84 0 -16 -30 c-14 -26 -16
-69 -13 -278 2 -136 7 -255 12 -264 7 -16 1 -18 -69 -18 -70 0 -76 2 -69 18 5
9 10 69 11 132 3 108 2 113 -12 83 -13 -30 -18 -33 -58 -33 -46 0 -61 10 -70
45 -3 11 -4 -32 -3 -95 1 -63 5 -123 10 -132 7 -16 1 -18 -69 -18 -70 0 -76 2
-69 18 5 9 10 129 12 265 3 212 1 253 -13 273 -8 13 -15 26 -15 29 0 3 37 5
83 5 l83 0 18 -72z m554 53 c-10 -16 -1 -67 50 -288 34 -148 62 -272 62 -276
0 -4 -32 -7 -71 -7 -64 0 -70 2 -63 18 11 22 7 134 -6 167 -8 20 -16 25 -44
25 -44 0 -52 -11 -63 -92 -7 -51 -6 -73 4 -92 l14 -26 -75 0 c-65 0 -74 2 -70
18 105 447 123 536 113 553 -9 18 -5 19 76 19 82 0 85 -1 73 -19z m460 -21
c27 -47 30 -126 6 -172 -15 -29 -15 -34 0 -65 12 -25 16 -64 16 -154 0 -66 5
-129 10 -140 10 -18 7 -19 -70 -19 -44 0 -80 2 -80 5 0 3 7 16 15 29 12 18 15
48 13 137 l-3 114 -37 3 -38 3 0 -116 c0 -84 4 -124 15 -145 l16 -30 -80 0
-80 0 10 28 c12 34 8 519 -5 545 -8 16 2 17 130 17 l139 0 23 -40z m362 -15
l0 -55 -45 0 -46 0 3 -222 c2 -123 7 -231 12 -240 7 -16 1 -18 -73 -18 l-82 0
16 30 c12 23 15 70 15 240 l0 210 -45 0 -45 0 0 55 0 55 145 0 145 0 0 -55z
m-452 -600 c-7 -7 -1410 -6 -1416 0 -3 3 316 5 708 5 392 0 711 -2 708 -5z
m-841 -72 c4 -9 1 -19 -5 -21 -7 -2 -12 -26 -12 -63 0 -46 3 -59 15 -59 8 0
15 9 15 20 0 13 7 20 20 20 16 0 20 -7 20 -35 l0 -35 -75 0 c-60 0 -75 3 -75
15 0 8 5 15 10 15 6 0 10 27 10 60 0 33 -4 60 -10 60 -5 0 -10 9 -10 20 0 17
7 20 45 20 34 0 47 -4 52 -17z m179 5 c4 -6 0 -16 -9 -23 -23 -17 -24 -120 -1
-129 29 -11 3 -26 -47 -26 -37 0 -49 4 -49 15 0 8 5 15 10 15 6 0 10 27 10 60
0 33 -4 60 -10 60 -5 0 -10 9 -10 20 0 17 7 20 49 20 28 0 53 -5 57 -12z m123
-35 c27 -43 31 -45 31 -22 0 14 -5 30 -11 36 -18 18 -1 33 37 33 27 0 34 -4
34 -20 0 -11 -4 -20 -10 -20 -6 0 -10 -32 -10 -75 0 -74 0 -75 -25 -75 -20 0
-33 11 -58 52 l-32 52 -3 -34 c-2 -19 1 -36 7 -38 6 -2 11 -10 11 -18 0 -10
-12 -14 -40 -14 -29 0 -40 4 -40 15 0 8 5 15 10 15 14 0 13 117 -2 122 -26 9
2 38 36 38 29 0 38 -6 65 -47z m261 12 c0 -19 -4 -35 -10 -35 -5 0 -10 -11
-10 -25 0 -16 6 -25 16 -25 11 0 14 -8 12 -32 l-3 -33 -77 -3 c-65 -2 -78 0
-78 13 0 8 5 15 10 15 6 0 10 27 10 60 0 33 -4 60 -10 60 -5 0 -10 9 -10 20 0
18 7 20 75 20 l75 0 0 -35z m156 29 c16 -4 19 -12 16 -35 -4 -29 -32 -42 -32
-14 0 9 -9 15 -21 15 -27 0 -20 -21 13 -37 37 -19 51 -39 44 -67 -8 -31 -55
-50 -101 -42 -32 6 -36 10 -33 33 4 33 27 42 35 14 4 -15 12 -21 25 -19 30 5
24 21 -16 43 -50 27 -58 61 -22 92 27 23 52 28 92 17z m-848 -101 c3 -22 0
-23 -67 -23 -62 0 -71 2 -71 18 0 29 10 33 75 30 54 -3 60 -5 63 -25z m1032 2
c0 -12 -14 -15 -65 -15 -51 0 -65 3 -65 15 0 12 14 15 65 15 51 0 65 -3 65
-15z m-1340 -137 c0 -4 156 -9 348 -10 l347 -3 -347 -5 -347 -5 -16 35 c-13
30 -13 32 0 16 8 -11 15 -23 15 -28z"/>
<path d="M1328 1555 c-3 -6 -9 -31 -13 -57 -7 -44 -6 -48 13 -48 30 0 32 10
18 65 -7 27 -15 45 -18 40z"/>
<path d="M1700 1589 l0 -40 38 3 c35 3 37 5 40 41 l3 37 -40 0 -41 0 0 -41z"/>
<path d="M1430 969 c0 -18 2 -19 15 -5 8 8 15 17 15 20 0 3 -7 6 -15 6 -9 0
-15 -9 -15 -21z"/>
<path d="M1430 897 c0 -16 6 -23 20 -24 11 -1 20 0 20 3 0 2 -9 13 -20 24
l-20 20 0 -23z"/>
</g>
</svg>
